# xmcd CD database file
#
# Track frame offsets:
#	150
#	11262
#	22308
#	34040
#	45808
#	59459
#	72882
#	85038
#	97119
#	109980
#	123287
#	136846
#	150161
#	161000
#	175101
#	191480
#	203666
#	216859
#	250922
#
# Disc length: 3590 seconds
#
# Revision: 0
# Processed by: cddbd v1.5.2PL0 Copyright (c) Steve Scherf et al.
# Submitted via: CDex 1.70beta2
#
DISCID=f40e0413
DTITLE=Hodges - Giants of Jazz 2
DYEAR=1900
DGENRE=Jazz
TTITLE0=Empty Ballroom Blues: Johnny Hodges and His Orchestra 
TTITLE1=The Jeep Is Jumpin’: Johnny Hodges and His Orchestra
TTITLE2=Krum Elbow Blues: Johnny Hodges and His Orchestra
TTITLE3=Hodge Podge: Johnny Hodges and His Orchestra
TTITLE4=Wanderlust: Johnny Hodges and His Orchestra
TTITLE5=Dooji Wooji: Johnny Hodges and His Orchestra
TTITLE6=Finesse (Night Wind): Johnny Hodges and His Orchestra 
TTITLE7=The Rabbit’s Jump: Johnny Hodges and His Orchestra 
TTITLE8=Grievin’: Duke Ellington and His Famous Orchestra
TTITLE9=Day Dream: Johnny Hodges and Orchestra 
TTITLE10=Good Queen Bess: Johnny Hodges and Orchestra
TTITLE11=That’s the Blues, Old Man: Johnny Hodges and His Orchestra 
TTITLE12=Squaty Roo: Johnny Hodges and Orchestra 
TTITLE13=Passion Flower. Johnny Hodges and Orchestra
TTITLE14=Things Ain’t What They Used to Be: Johnny Hodges and Orchestra 
TTITLE15=Goin’ Out the Back Way: Johnny Hodges and Orchestra 
TTITLE16=Hy’a Sue: Duke Ellington and His Orchestra 
TTITLE17=Beale Street Blues: Duke Ellington’s All Stars
TTITLE18=Isfahan: Duke Ellington and His Orchestra
EXTD=
EXTT0=
EXTT1=
EXTT2=
EXTT3=
EXTT4=
EXTT5=
EXTT6=
EXTT7=
EXTT8=
EXTT9=
EXTT10=
EXTT11=
EXTT12=
EXTT13=
EXTT14=
EXTT15=
EXTT16=
EXTT17=
EXTT18=
PLAYORDER=
